<?xml version="1.0" encoding="UTF-8" standalone="no"?>
<svg
   xmlns:dc="http://purl.org/dc/elements/1.1/"
   xmlns:cc="http://creativecommons.org/ns#"
   xmlns:rdf="http://www.w3.org/1999/02/22-rdf-syntax-ns#"
   xmlns:svg="http://www.w3.org/2000/svg"
   xmlns="http://www.w3.org/2000/svg"
   xmlns:sodipodi="http://sodipodi.sourceforge.net/DTD/sodipodi-0.dtd"
   xmlns:inkscape="http://www.inkscape.org/namespaces/inkscape"
   width="271.32382mm"
   height="158.7251mm"
   viewBox="0 0 271.32382 158.7251"
   version="1.1"
   id="svg59"
   inkscape:version="1.0.2-2 (e86c870879, 2021-01-15)"
   sodipodi:docname="gameTitle.svg">
  <defs
     id="defs53" />
  <sodipodi:namedview
     id="base"
     pagecolor="#ffffff"
     bordercolor="#666666"
     borderopacity="1.0"
     inkscape:pageopacity="0.0"
     inkscape:pageshadow="2"
     inkscape:zoom="0.49497475"
     inkscape:cx="261.26994"
     inkscape:cy="342.58878"
     inkscape:document-units="mm"
     inkscape:current-layer="layer1"
     inkscape:document-rotation="0"
     showgrid="false"
     inkscape:window-width="1465"
     inkscape:window-height="1040"
     inkscape:window-x="208"
     inkscape:window-y="0"
     inkscape:window-maximized="0"
     fit-margin-top="0"
     fit-margin-left="0"
     fit-margin-right="0"
     fit-margin-bottom="0" />
  <metadata
     id="metadata56">
    <rdf:RDF>
      <cc:Work
         rdf:about="">
        <dc:format>image/svg+xml</dc:format>
        <dc:type
           rdf:resource="http://purl.org/dc/dcmitype/StillImage" />
        <dc:title></dc:title>
      </cc:Work>
    </rdf:RDF>
  </metadata>
  <g
     inkscape:label="Warstwa 1"
     inkscape:groupmode="layer"
     id="layer1"
     transform="translate(-6.9658535,-46.663987)">
    <g
       id="g14"
       transform="matrix(0.26458333,0,0,0.26458333,-3.5828193,46.663921)"
       style="fill:#b3b3b3">
      <path
         d="m 92.022,326.416 c -2.933,-5.883 -5.376,-12.052 -7.263,-18.337 -1.191,-3.967 -5.373,-6.217 -9.34,-5.026 -3.968,1.191 -6.218,5.373 -5.027,9.34 2.132,7.101 4.893,14.07 8.204,20.715 1.313,2.633 3.964,4.156 6.719,4.156 1.124,0 2.266,-0.253 3.34,-0.789 3.707,-1.849 5.214,-6.352 3.367,-10.059 z"
         id="path2"
         style="fill:#b3b3b3" />
      <path
         d="m 164.757,386.784 c -23.416,-6.611 -44.677,-20.848 -59.865,-40.087 -2.567,-3.251 -7.283,-3.806 -10.534,-1.239 -3.251,2.567 -3.806,7.283 -1.239,10.534 17.133,21.702 41.127,37.764 67.563,45.228 0.682,0.192 1.367,0.284 2.042,0.284 3.272,0 6.281,-2.159 7.214,-5.464 1.125,-3.987 -1.195,-8.131 -5.181,-9.256 z"
         id="path4"
         style="fill:#b3b3b3" />
      <path
         d="m 261.462,178.047 c 32.2,21.772 51.424,57.879 51.424,96.588 0,24.733 -7.684,48.372 -22.219,68.363 -2.437,3.35 -1.695,8.041 1.654,10.477 1.332,0.968 2.875,1.435 4.405,1.435 2.318,0 4.604,-1.071 6.071,-3.09 16.413,-22.571 25.088,-49.261 25.088,-77.184 0,-43.696 -21.69,-84.448 -58.021,-109.014 -3.433,-2.321 -8.095,-1.419 -10.414,2.012 -2.32,3.431 -1.419,8.093 2.012,10.413 z"
         id="path6"
         style="fill:#b3b3b3" />
      <path
         d="m 188.878,150.627 c 0,4.142 3.357,7.5 7.5,7.5 16.092,0 31.68,3.233 46.332,9.611 0.975,0.424 1.99,0.625 2.989,0.625 2.895,0 5.652,-1.686 6.881,-4.509 1.653,-3.798 -0.086,-8.217 -3.884,-9.87 -16.553,-7.204 -34.155,-10.857 -52.318,-10.857 -4.142,0 -7.5,3.358 -7.5,7.5 z"
         id="path8"
         style="fill:#b3b3b3" />
      <path
         d="m 361.774,52.036 c -4.143,0 -7.5,3.358 -7.5,7.5 v 17.25 c 0,18.608 -15.14,33.748 -33.748,33.748 -18.608,0 -33.748,-15.139 -33.748,-33.748 v -9 c 0,-26.879 -21.868,-48.748 -48.748,-48.748 h -0.404 c -26.879,0 -48.747,21.868 -48.747,48.748 v 22.439 h -30 c -4.143,0 -7.5,3.358 -7.5,7.5 v 27.006 c -64.434,19.378 -111.51,79.242 -111.51,149.904 0,86.299 70.209,156.508 156.508,156.508 86.299,0 156.509,-70.209 156.509,-156.508 0,-70.661 -47.076,-130.525 -111.508,-149.904 V 97.725 c 0,-4.142 -3.357,-7.5 -7.5,-7.5 h -30 v -22.44 c 0,-18.608 15.139,-33.748 33.747,-33.748 h 0.404 c 18.608,0 33.748,15.139 33.748,33.748 v 9 c 0,26.879 21.868,48.748 48.748,48.748 26.88,0 48.748,-21.868 48.748,-48.748 v -17.25 c 10e-4,-4.141 -3.357,-7.499 -7.499,-7.499 z m -23.888,222.599 c 0,78.028 -63.48,141.508 -141.509,141.508 -78.027,0 -141.508,-63.48 -141.508,-141.508 0,-78.028 63.48,-141.508 141.508,-141.508 78.029,0 141.509,63.48 141.509,141.508 z M 226.378,121.024 c -9.714,-1.894 -19.742,-2.897 -30.001,-2.897 -10.259,0 -20.286,1.003 -29.999,2.897 v -15.798 h 60 z"
         id="path10"
         style="fill:#b3b3b3" />
      <path
         d="m 372.381,29.5 16.697,-16.697 c 2.929,-2.929 2.929,-7.678 0,-10.606 -2.93,-2.929 -7.678,-2.929 -10.607,0 L 361.775,18.893 345.077,2.197 c -2.93,-2.929 -7.678,-2.929 -10.607,0 -2.929,2.929 -2.929,7.678 0,10.606 L 351.167,29.5 334.47,46.197 c -2.929,2.929 -2.929,7.678 0,10.606 1.465,1.464 3.385,2.197 5.304,2.197 1.919,0 3.839,-0.732 5.304,-2.197 l 16.696,-16.696 16.696,16.696 c 1.465,1.464 3.385,2.197 5.304,2.197 1.919,0 3.839,-0.732 5.304,-2.197 2.929,-2.929 2.929,-7.678 0,-10.606 z"
         id="path12"
         style="fill:#b3b3b3" />
    </g>
    <text
       xml:space="preserve"
       style="font-style:normal;font-variant:normal;font-weight:normal;font-stretch:normal;font-size:58.3345px;line-height:1.25;font-family:Hello;-inkscape-font-specification:'Hello, Normal';font-variant-ligatures:normal;font-variant-caps:normal;font-variant-numeric:normal;font-variant-east-asian:normal;fill:#ffffff;fill-opacity:1;stroke:none;stroke-width:1.45837"
       x="35.705517"
       y="163.9552"
       id="text107"
       transform="scale(0.92380298,1.0824819)"><tspan
         sodipodi:role="line"
         id="tspan105"
         x="35.705517"
         y="163.9552"
         style="font-style:normal;font-variant:normal;font-weight:normal;font-stretch:normal;font-size:58.3345px;font-family:Hello;-inkscape-font-specification:'Hello, Normal';font-variant-ligatures:normal;font-variant-caps:normal;font-variant-numeric:normal;font-variant-east-asian:normal;stroke-width:1.45837">Minesweeper</tspan></text>
  </g>
</svg>
